/* XPM */
static char *Haskell_Logo_512x512_white_resized[] = {
/* columns rows colors chars-per-pixel */
"38 38 2 1 ",
"  c None",
". c white",
/* pixels */
"                                      ",
"                                      ",
"                                      ",
"                                      ",
"                                      ",
"                                      ",
" ......   ......                      ",
" .......  .......                     ",
"  .......  .......                    ",
"   ......   ......                    ",
"   .......  .......                   ",
"    .......  .......                  ",
"     ......   ......                  ",
"     .......  .......   ..............",
"      .......  .......  ..............",
"       ......   ......   .............",
"       .......  .......  .............",
"        .......  .......  ............",
"         ......   ......              ",
"         ......   .......             ",
"        .......  .........  ..........",
"       .......  ..........  ..........",
"       ......   ...........  .........",
"      .......  .............  ........",
"     .......  ..............   .......",
"     ......   ......  .......         ",
"    .......  .......   .......        ",
"   .......  .......     ......        ",
"   ......   ......      .......       ",
"  .......  .......       .......      ",
" .......  .......         ......      ",
" ......   ......          .......     ",
"                                      ",
"                                      ",
"                                      ",
"                                      ",
"                                      ",
"                                      "
};
